<svg xmlns="http://www.w3.org/2000/svg" xmlns:xlink="http://www.w3.org/1999/xlink" width="500" zoomAndPan="magnify" viewBox="0 0 375 374.999991" height="500" preserveAspectRatio="xMidYMid meet" version="1.0"><defs><clipPath id="a96e3391d7"><path d="M 33.667969 47.359375 L 54.667969 47.359375 L 54.667969 64.609375 L 33.667969 64.609375 Z M 33.667969 47.359375 " clip-rule="nonzero"/></clipPath><clipPath id="3fca16285d"><path d="M 33 63 L 54 63 L 54 80 L 33 80 Z M 33 63 " clip-rule="nonzero"/></clipPath><clipPath id="bcdc3322a2"><path d="M 34.480469 62.117188 L 54.621094 64.195312 L 52.929688 80.605469 L 32.785156 78.53125 Z M 34.480469 62.117188 " clip-rule="nonzero"/></clipPath><clipPath id="7aabf3e0fd"><path d="M 34.480469 62.117188 L 54.621094 64.195312 L 52.929688 80.605469 L 32.785156 78.53125 Z M 34.480469 62.117188 " clip-rule="nonzero"/></clipPath><clipPath id="6ae9c38d8d"><path d="M 26.816406 37.5 L 66.566406 37.5 L 66.566406 87 L 26.816406 87 Z M 26.816406 37.5 " clip-rule="nonzero"/></clipPath><clipPath id="f4d68c2f8b"><path d="M 144.363281 178 L 184.863281 178 L 184.863281 227.453125 L 144.363281 227.453125 Z M 144.363281 178 " clip-rule="nonzero"/></clipPath><clipPath id="05d963e872"><path d="M 174 152 L 253 152 L 253 244 L 174 244 Z M 174 152 " clip-rule="nonzero"/></clipPath><clipPath id="077f212735"><path d="M 166.160156 238.933594 L 181.875 146.507812 L 256.554688 159.207031 L 240.835938 251.632812 Z M 166.160156 238.933594 " clip-rule="nonzero"/></clipPath><clipPath id="40724ec960"><path d="M 166.160156 238.933594 L 181.875 146.507812 L 256.554688 159.207031 L 240.835938 251.632812 Z M 166.160156 238.933594 " clip-rule="nonzero"/></clipPath><clipPath id="2e145bdc23"><path d="M 203 123 L 217 123 L 217 139 L 203 139 Z M 203 123 " clip-rule="nonzero"/></clipPath><clipPath id="e35fcf1fe8"><path d="M 251.492188 161.507812 L 212.613281 204.207031 L 170.464844 165.835938 L 209.34375 123.132812 Z M 251.492188 161.507812 " clip-rule="nonzero"/></clipPath><clipPath id="7b9d8d0bfc"><path d="M 251.492188 161.507812 L 212.613281 204.207031 L 170.464844 165.835938 L 209.34375 123.132812 Z M 251.492188 161.507812 " clip-rule="nonzero"/></clipPath><clipPath id="5c47d499ac"><path d="M 203 138 L 219 138 L 219 185 L 203 185 Z M 203 138 " clip-rule="nonzero"/></clipPath><clipPath id="c13a88ab15"><path d="M 251.492188 161.507812 L 212.613281 204.207031 L 170.464844 165.835938 L 209.34375 123.132812 Z M 251.492188 161.507812 " clip-rule="nonzero"/></clipPath><clipPath id="b61d221f98"><path d="M 251.492188 161.507812 L 212.613281 204.207031 L 170.464844 165.835938 L 209.34375 123.132812 Z M 251.492188 161.507812 " clip-rule="nonzero"/></clipPath><clipPath id="d7003de588"><path d="M 205 185 L 220 185 L 220 201 L 205 201 Z M 205 185 " clip-rule="nonzero"/></clipPath><clipPath id="c23048025b"><path d="M 251.492188 161.507812 L 212.613281 204.207031 L 170.464844 165.835938 L 209.34375 123.132812 Z M 251.492188 161.507812 " clip-rule="nonzero"/></clipPath><clipPath id="b94fd70eb7"><path d="M 251.492188 161.507812 L 212.613281 204.207031 L 170.464844 165.835938 L 209.34375 123.132812 Z M 251.492188 161.507812 " clip-rule="nonzero"/></clipPath><clipPath id="10f8c86cfb"><path d="M 173 156 L 236 156 L 236 244 L 173 244 Z M 173 156 " clip-rule="nonzero"/></clipPath><clipPath id="62b405cfbb"><path d="M 164.65625 238.128906 L 179.777344 156.261719 L 235.828125 166.613281 L 220.710938 248.476562 Z M 164.65625 238.128906 " clip-rule="nonzero"/></clipPath><clipPath id="2d617a1f64"><path d="M 164.65625 238.128906 L 181.683594 145.9375 L 256.171875 159.691406 L 239.148438 251.882812 Z M 164.65625 238.128906 " clip-rule="nonzero"/></clipPath></defs><g clip-path="url(#a96e3391d7)"><path fill="#7ed957" d="M 54.542969 72.164062 C 54.390625 71.011719 54.003906 69.933594 53.386719 68.960938 C 52.78125 68.003906 51.972656 67.175781 50.988281 66.496094 C 50 65.816406 48.859375 65.304688 47.601562 64.976562 C 46.417969 64.671875 45.15625 64.535156 43.84375 64.574219 C 44.277344 62.691406 44.648438 61.765625 45.453125 61.402344 C 45.515625 61.375 45.578125 61.351562 45.648438 61.324219 C 45.859375 61.242188 46.097656 61.152344 46.296875 60.960938 C 46.804688 60.484375 46.707031 59.832031 46.625 59.257812 C 46.570312 58.875 46.515625 58.511719 46.632812 58.246094 C 46.804688 57.859375 47.332031 57.6875 47.839844 57.523438 C 47.898438 57.503906 47.957031 57.484375 48.015625 57.464844 C 48.777344 57.214844 49.613281 56.605469 49.476562 55.726562 C 49.445312 55.539062 49.375 55.382812 49.3125 55.242188 C 49.273438 55.15625 49.234375 55.070312 49.214844 54.996094 C 49.054688 54.386719 49.878906 53.847656 50.519531 53.660156 C 50.632812 53.625 50.75 53.59375 50.875 53.558594 C 51.671875 53.339844 52.578125 53.09375 53.019531 52.289062 C 53.273438 51.824219 53.292969 51.273438 53.070312 50.730469 C 52.808594 50.085938 52.246094 49.566406 51.601562 49.375 C 50.648438 49.089844 49.519531 49.339844 48.417969 50.085938 C 46.332031 51.496094 45.175781 53.855469 44.398438 55.753906 C 44.265625 56.078125 44.136719 56.402344 44.019531 56.722656 C 43.945312 56.207031 43.859375 55.679688 43.753906 55.148438 C 43.367188 53.132812 42.695312 50.589844 40.933594 48.792969 C 40 47.847656 38.941406 47.375 37.949219 47.46875 C 37.28125 47.53125 36.628906 47.929688 36.242188 48.507812 C 35.921875 48.996094 35.828125 49.542969 35.988281 50.046875 C 36.261719 50.921875 37.101562 51.34375 37.839844 51.714844 C 37.953125 51.773438 38.0625 51.828125 38.167969 51.882812 C 38.757812 52.195312 39.460938 52.886719 39.179688 53.453125 C 39.148438 53.523438 39.09375 53.597656 39.039062 53.675781 C 38.949219 53.800781 38.847656 53.941406 38.78125 54.117188 C 38.472656 54.953125 39.175781 55.714844 39.871094 56.109375 C 39.921875 56.140625 39.976562 56.171875 40.03125 56.203125 C 40.496094 56.464844 40.980469 56.734375 41.070312 57.144531 C 41.132812 57.429688 41.007812 57.777344 40.878906 58.140625 C 40.683594 58.691406 40.460938 59.308594 40.863281 59.878906 C 41.023438 60.101562 41.238281 60.238281 41.429688 60.359375 C 41.492188 60.398438 41.550781 60.4375 41.605469 60.476562 C 42.179688 60.886719 42.425781 61.578125 42.519531 63.027344 C 42.550781 63.484375 42.5625 64.003906 42.574219 64.660156 C 41.667969 64.765625 40.785156 64.953125 39.945312 65.222656 C 38.921875 65.550781 37.992188 65.992188 37.179688 66.535156 C 36.265625 67.144531 35.503906 67.882812 34.914062 68.726562 C 34.261719 69.660156 33.816406 70.738281 33.59375 71.921875 C 33.339844 73.285156 33.1875 75.363281 33.925781 77.539062 C 34.6875 79.804688 36.226562 81.628906 38.492188 82.964844 C 39.871094 83.78125 40.683594 84.492188 41.296875 85.429688 C 41.976562 86.460938 42.441406 87.832031 42.796875 89.863281 C 42.859375 90.199219 43.132812 90.433594 43.472656 90.433594 C 43.480469 90.433594 43.488281 90.433594 43.492188 90.433594 C 43.839844 90.421875 44.113281 90.175781 44.15625 89.832031 C 44.722656 85.296875 46.984375 84.308594 47.664062 84.113281 C 50.109375 83.414062 52.046875 81.9375 53.261719 79.84375 C 54.484375 77.738281 54.925781 75.082031 54.542969 72.164062 Z M 45.101562 56.042969 C 45.835938 54.246094 46.929688 52.011719 48.84375 50.714844 C 50.070312 49.886719 50.960938 49.976562 51.382812 50.101562 C 51.804688 50.230469 52.191406 50.589844 52.367188 51.019531 C 52.445312 51.207031 52.546875 51.574219 52.355469 51.921875 C 52.066406 52.445312 51.390625 52.628906 50.675781 52.828125 C 50.550781 52.859375 50.425781 52.894531 50.304688 52.929688 C 49.785156 53.082031 49.296875 53.363281 48.960938 53.699219 C 48.515625 54.144531 48.34375 54.671875 48.480469 55.191406 C 48.515625 55.328125 48.570312 55.449219 48.621094 55.554688 C 48.667969 55.660156 48.710938 55.761719 48.726562 55.847656 C 48.785156 56.226562 48.277344 56.582031 47.777344 56.746094 C 47.71875 56.765625 47.664062 56.785156 47.605469 56.800781 C 47 57 46.246094 57.242188 45.941406 57.9375 C 45.734375 58.40625 45.808594 58.917969 45.875 59.367188 C 45.949219 59.886719 45.984375 60.214844 45.777344 60.410156 C 45.683594 60.496094 45.535156 60.554688 45.375 60.613281 C 45.300781 60.644531 45.222656 60.671875 45.140625 60.710938 C 44.789062 60.867188 44.503906 61.09375 44.265625 61.386719 C 44.308594 60.453125 44.292969 59.488281 44.214844 58.488281 C 44.460938 57.695312 44.757812 56.871094 45.101562 56.042969 Z M 42.046875 59.855469 C 41.976562 59.804688 41.902344 59.761719 41.835938 59.714844 C 41.691406 59.625 41.554688 59.539062 41.484375 59.4375 C 41.316406 59.203125 41.417969 58.890625 41.59375 58.398438 C 41.746094 57.96875 41.921875 57.480469 41.8125 56.984375 C 41.648438 56.242188 40.957031 55.851562 40.402344 55.539062 C 40.347656 55.511719 40.296875 55.480469 40.246094 55.453125 C 39.789062 55.191406 39.359375 54.742188 39.492188 54.382812 C 39.523438 54.300781 39.585938 54.210938 39.65625 54.117188 C 39.722656 54.023438 39.800781 53.914062 39.863281 53.789062 C 40.097656 53.308594 40.035156 52.753906 39.6875 52.230469 C 39.425781 51.835938 39 51.464844 38.523438 51.214844 C 38.410156 51.152344 38.292969 51.09375 38.179688 51.039062 C 37.515625 50.703125 36.890625 50.386719 36.710938 49.820312 C 36.59375 49.441406 36.761719 49.101562 36.875 48.929688 C 37.132812 48.542969 37.582031 48.269531 38.019531 48.226562 C 38.070312 48.222656 38.128906 48.21875 38.191406 48.21875 C 38.667969 48.21875 39.472656 48.394531 40.390625 49.328125 C 42.011719 50.976562 42.640625 53.382812 43.007812 55.292969 C 43.21875 56.390625 43.371094 57.464844 43.449219 58.476562 C 43.589844 60.214844 43.539062 61.851562 43.296875 63.363281 C 43.292969 63.230469 43.285156 63.101562 43.277344 62.976562 C 43.1875 61.566406 42.941406 60.5 42.046875 59.855469 Z M 53.644531 76.753906 L 51.082031 76.753906 C 50.875 76.753906 50.703125 76.921875 50.703125 77.132812 C 50.703125 77.34375 50.875 77.511719 51.082031 77.511719 L 53.445312 77.511719 C 53.328125 77.890625 53.195312 78.253906 53.039062 78.601562 L 53.039062 78.457031 L 47.847656 78.457031 C 47.636719 78.457031 47.464844 78.628906 47.464844 78.839844 C 47.464844 79.046875 47.636719 79.21875 47.847656 79.21875 L 52.738281 79.21875 C 52.695312 79.300781 52.648438 79.382812 52.601562 79.460938 C 51.488281 81.382812 49.707031 82.738281 47.453125 83.382812 C 46.957031 83.527344 45.988281 83.9375 45.105469 85.078125 C 44.285156 86.136719 43.734375 87.550781 43.464844 89.289062 C 43.097656 87.386719 42.621094 86.054688 41.929688 85.011719 C 41.519531 84.382812 41.03125 83.847656 40.386719 83.332031 L 42.503906 83.332031 C 42.714844 83.332031 42.886719 83.160156 42.886719 82.953125 C 42.886719 82.742188 42.714844 82.570312 42.503906 82.570312 L 39.304688 82.570312 C 39.167969 82.484375 39.027344 82.398438 38.878906 82.3125 C 36.773438 81.070312 35.347656 79.382812 34.644531 77.296875 C 34.332031 76.375 34.191406 75.472656 34.15625 74.640625 L 36.425781 74.640625 C 36.636719 74.640625 36.804688 74.472656 36.804688 74.261719 C 36.804688 74.050781 36.632812 73.882812 36.425781 73.882812 L 34.148438 73.882812 C 34.164062 73.191406 34.246094 72.574219 34.339844 72.0625 C 34.726562 69.996094 35.824219 68.351562 37.601562 67.167969 C 39.023438 66.21875 40.894531 65.589844 42.875 65.394531 C 42.914062 65.390625 42.953125 65.386719 42.992188 65.382812 C 43.113281 65.371094 43.242188 65.359375 43.371094 65.351562 C 43.375 65.351562 43.378906 65.351562 43.382812 65.351562 C 43.386719 65.351562 43.386719 65.351562 43.386719 65.351562 C 43.421875 65.351562 43.457031 65.347656 43.492188 65.347656 L 43.496094 65.347656 C 44.871094 65.273438 46.1875 65.398438 47.410156 65.710938 C 48.582031 66.015625 49.640625 66.488281 50.554688 67.121094 C 51.125 67.515625 51.628906 67.960938 52.0625 68.457031 L 47.988281 68.457031 C 47.777344 68.457031 47.609375 68.625 47.609375 68.835938 C 47.609375 69.046875 47.777344 69.214844 47.988281 69.214844 L 52.644531 69.214844 C 52.679688 69.265625 52.710938 69.316406 52.742188 69.367188 C 53.300781 70.246094 53.652344 71.222656 53.789062 72.261719 C 54 73.867188 53.949219 75.378906 53.644531 76.753906 Z M 53.644531 76.753906 " fill-opacity="1" fill-rule="nonzero"/></g><g clip-path="url(#3fca16285d)"><g clip-path="url(#bcdc3322a2)"><g clip-path="url(#7aabf3e0fd)"><path fill="#923a5f" d="M 51.953125 69.777344 L 52.398438 75.839844 C 52.441406 76.417969 51.992188 76.816406 50.710938 77.003906 L 45.394531 77.753906 C 44.902344 78.199219 44.628906 79.511719 44.996094 79.636719 C 44.996094 79.636719 49.25 79.679688 51.460938 79.71875 C 51.984375 79.722656 52.855469 79.058594 52.9375 78.519531 L 53.957031 71.347656 Z M 47.507812 76.546875 L 46.789062 68.9375 L 47.355469 68.871094 L 48.210938 76.273438 C 48.265625 76.726562 51.804688 76.402344 51.765625 75.914062 L 51.078125 66.414062 C 51.039062 65.910156 50.195312 63.9375 49.828125 63.953125 L 47.839844 64.050781 C 47.355469 64.078125 47.171875 64.609375 46.492188 64.664062 C 45.886719 64.71875 45.25 63.238281 44.707031 63.296875 L 42.707031 63.535156 C 42.152344 63.605469 42.003906 64.8125 41.390625 64.917969 C 40.769531 65.03125 40.429688 64.484375 39.988281 64.566406 L 38.417969 64.851562 C 37.78125 64.964844 37.621094 66.386719 37.003906 66.578125 C 36.4375 66.75 36.011719 66.3125 35.578125 66.535156 L 34.246094 67.226562 C 33.9375 67.371094 33.878906 69.417969 33.992188 69.824219 L 35.652344 76.570312 C 35.742188 76.9375 38.402344 76.585938 38.351562 76.238281 L 37.347656 70.015625 L 37.917969 69.949219 L 39.128906 77.335938 C 39.191406 77.738281 42.605469 77.378906 42.554688 76.976562 C 42.265625 74.488281 41.695312 69.523438 41.695312 69.523438 L 42.261719 69.453125 L 43.226562 77.035156 C 43.285156 77.449219 47.558594 77.023438 47.507812 76.546875 Z M 47.507812 76.546875 " fill-opacity="1" fill-rule="nonzero"/></g></g></g><g clip-path="url(#6ae9c38d8d)"><path fill="#000000" d="M 54.457031 39.25 C 54.453125 39.214844 54.410156 39.222656 54.421875 39.285156 L 54.421875 49.785156 L 64.9375 49.785156 C 61.585938 46.273438 57.921875 42.765625 54.457031 39.25 Z M 27.71875 38.539062 L 27.71875 86.054688 L 65.648438 86.054688 L 65.648438 50.675781 C 62.1875 50.675781 58.554688 50.675781 55.0625 50.675781 C 54.628906 50.675781 53.816406 50.75 53.636719 50.570312 C 53.449219 50.382812 53.53125 49.558594 53.53125 49.039062 C 53.527344 45.53125 53.53125 41.738281 53.53125 38.433594 C 44.9375 38.433594 36.347656 38.433594 27.753906 38.433594 C 27.714844 38.4375 27.714844 38.488281 27.71875 38.539062 Z M 27.078125 37.542969 L 52.03125 37.542969 C 52.59375 37.542969 53.207031 37.460938 53.671875 37.542969 C 53.960938 37.59375 54.285156 37.953125 54.597656 38.21875 C 56.582031 39.894531 58.472656 41.980469 60.230469 43.734375 C 62.390625 45.890625 64.429688 48 66.542969 50.175781 C 66.542969 61.601562 66.539062 73.066406 66.542969 84.664062 C 66.542969 85.351562 66.648438 86.625 66.433594 86.835938 C 66.199219 87.070312 64.730469 86.941406 64.046875 86.941406 C 52.359375 86.941406 40.996094 86.945312 29.359375 86.941406 C 28.71875 86.941406 27.277344 87.097656 26.972656 86.871094 C 26.773438 86.726562 26.828125 85.949219 26.828125 85.449219 C 26.828125 69.949219 26.828125 54.601562 26.828125 39.074219 C 26.828125 38.675781 26.769531 37.757812 26.9375 37.648438 C 26.976562 37.621094 26.984375 37.605469 27.078125 37.542969 " fill-opacity="1" fill-rule="evenodd"/></g><g clip-path="url(#f4d68c2f8b)"><path fill="#7ed957" d="M 202.535156 178.496094 C 199.835938 178.851562 197.304688 179.765625 195.019531 181.214844 C 192.777344 182.636719 190.835938 184.527344 189.242188 186.835938 C 187.644531 189.15625 186.445312 191.828125 185.683594 194.78125 C 184.964844 197.550781 184.648438 200.507812 184.730469 203.59375 C 180.320312 202.570312 178.148438 201.699219 177.296875 199.816406 C 177.234375 199.671875 177.175781 199.519531 177.113281 199.355469 C 176.921875 198.863281 176.707031 198.304688 176.265625 197.835938 C 175.148438 196.648438 173.617188 196.871094 172.269531 197.066406 C 171.367188 197.199219 170.515625 197.320312 169.890625 197.046875 C 168.992188 196.648438 168.589844 195.410156 168.203125 194.214844 C 168.15625 194.078125 168.113281 193.941406 168.066406 193.804688 C 167.476562 192.023438 166.050781 190.058594 163.988281 190.382812 C 163.550781 190.449219 163.179688 190.617188 162.855469 190.765625 C 162.648438 190.859375 162.453125 190.945312 162.277344 190.992188 C 160.847656 191.367188 159.582031 189.433594 159.140625 187.9375 C 159.058594 187.667969 158.984375 187.390625 158.90625 187.097656 C 158.390625 185.230469 157.808594 183.113281 155.925781 182.074219 C 154.839844 181.476562 153.542969 181.429688 152.273438 181.949219 C 150.765625 182.566406 149.546875 183.886719 149.09375 185.394531 C 148.421875 187.628906 149.011719 190.28125 150.757812 192.859375 C 154.066406 197.75 159.605469 200.46875 164.054688 202.292969 C 164.8125 202.605469 165.570312 202.898438 166.320312 203.179688 C 165.109375 203.351562 163.878906 203.554688 162.632812 203.796875 C 157.90625 204.703125 151.941406 206.277344 147.730469 210.417969 C 145.511719 212.601562 144.40625 215.085938 144.625 217.40625 C 144.769531 218.976562 145.707031 220.507812 147.0625 221.414062 C 148.203125 222.171875 149.484375 222.382812 150.667969 222.011719 C 152.722656 221.367188 153.710938 219.402344 154.582031 217.671875 C 154.71875 217.402344 154.847656 217.144531 154.976562 216.894531 C 155.707031 215.519531 157.328125 213.871094 158.65625 214.523438 C 158.820312 214.601562 158.992188 214.726562 159.175781 214.859375 C 159.46875 215.066406 159.800781 215.304688 160.214844 215.460938 C 162.171875 216.183594 163.957031 214.539062 164.890625 212.910156 C 164.960938 212.785156 165.03125 212.660156 165.101562 212.535156 C 165.71875 211.4375 166.355469 210.304688 167.316406 210.09375 C 167.984375 209.945312 168.796875 210.234375 169.652344 210.542969 C 170.9375 211 172.390625 211.519531 173.71875 210.578125 C 174.246094 210.203125 174.566406 209.699219 174.851562 209.253906 C 174.945312 209.105469 175.03125 208.96875 175.121094 208.84375 C 176.089844 207.496094 177.710938 206.914062 181.105469 206.695312 C 182.183594 206.625 183.402344 206.589844 184.941406 206.570312 C 185.1875 208.691406 185.628906 210.761719 186.257812 212.730469 C 187.027344 215.128906 188.0625 217.3125 189.332031 219.214844 C 190.765625 221.363281 192.492188 223.148438 194.46875 224.53125 C 196.664062 226.0625 199.1875 227.105469 201.964844 227.625 C 205.160156 228.222656 210.035156 228.574219 215.140625 226.851562 C 220.449219 225.058594 224.730469 221.453125 227.867188 216.140625 C 229.773438 212.910156 231.445312 211.003906 233.640625 209.558594 C 236.0625 207.964844 239.269531 206.878906 244.039062 206.039062 C 244.832031 205.902344 245.371094 205.253906 245.371094 204.457031 C 245.371094 204.441406 245.371094 204.425781 245.371094 204.410156 C 245.351562 203.59375 244.773438 202.953125 243.964844 202.855469 C 233.328125 201.523438 231.011719 196.226562 230.558594 194.632812 C 228.914062 188.894531 225.449219 184.351562 220.539062 181.503906 C 215.601562 178.636719 209.375 177.597656 202.535156 178.496094 Z M 164.734375 200.644531 C 160.511719 198.914062 155.277344 196.355469 152.234375 191.859375 C 150.292969 188.988281 150.503906 186.898438 150.800781 185.90625 C 151.097656 184.917969 151.941406 184.011719 152.949219 183.597656 C 153.390625 183.417969 154.25 183.183594 155.066406 183.632812 C 156.292969 184.308594 156.726562 185.894531 157.1875 187.570312 C 157.265625 187.859375 157.347656 188.15625 157.433594 188.441406 C 157.789062 189.652344 158.445312 190.800781 159.234375 191.59375 C 160.277344 192.636719 161.519531 193.035156 162.734375 192.714844 C 163.050781 192.632812 163.335938 192.503906 163.585938 192.390625 C 163.835938 192.277344 164.066406 192.171875 164.269531 192.140625 C 165.164062 192 165.988281 193.195312 166.378906 194.367188 C 166.421875 194.5 166.464844 194.628906 166.507812 194.765625 C 166.96875 196.1875 167.542969 197.953125 169.171875 198.675781 C 170.265625 199.160156 171.46875 198.984375 172.527344 198.828125 C 173.742188 198.652344 174.511719 198.570312 174.96875 199.058594 C 175.171875 199.273438 175.304688 199.625 175.449219 199.996094 C 175.515625 200.175781 175.589844 200.359375 175.671875 200.546875 C 176.046875 201.371094 176.578125 202.042969 177.261719 202.605469 C 175.074219 202.5 172.808594 202.539062 170.464844 202.71875 C 168.601562 202.140625 166.675781 201.441406 164.734375 200.644531 Z M 173.671875 207.804688 C 173.554688 207.972656 173.445312 208.140625 173.34375 208.300781 C 173.128906 208.636719 172.929688 208.953125 172.6875 209.125 C 172.144531 209.511719 171.40625 209.277344 170.25 208.863281 C 169.242188 208.503906 168.101562 208.097656 166.933594 208.355469 C 165.191406 208.738281 164.28125 210.359375 163.546875 211.660156 C 163.480469 211.785156 163.410156 211.90625 163.34375 212.023438 C 162.730469 213.09375 161.683594 214.105469 160.835938 213.789062 C 160.644531 213.71875 160.4375 213.570312 160.214844 213.410156 C 159.992188 213.253906 159.738281 213.070312 159.441406 212.925781 C 158.316406 212.371094 157.019531 212.515625 155.792969 213.335938 C 154.863281 213.953125 153.992188 214.949219 153.402344 216.066406 C 153.265625 216.332031 153.125 216.605469 152.992188 216.871094 C 152.207031 218.425781 151.46875 219.894531 150.132812 220.3125 C 149.246094 220.59375 148.449219 220.191406 148.050781 219.929688 C 147.144531 219.324219 146.496094 218.273438 146.398438 217.242188 C 146.386719 217.125 146.382812 216.992188 146.382812 216.84375 C 146.382812 215.722656 146.796875 213.839844 148.980469 211.6875 C 152.851562 207.882812 158.488281 206.410156 162.96875 205.546875 C 165.550781 205.050781 168.0625 204.703125 170.433594 204.511719 C 174.511719 204.183594 178.351562 204.300781 181.894531 204.867188 C 181.582031 204.882812 181.28125 204.898438 180.988281 204.917969 C 177.6875 205.132812 175.179688 205.703125 173.671875 207.804688 Z M 213.296875 180.609375 L 213.296875 186.613281 C 213.296875 187.105469 213.695312 187.503906 214.1875 187.503906 C 214.679688 187.503906 215.078125 187.105469 215.078125 186.613281 L 215.078125 181.078125 C 215.957031 181.34375 216.808594 181.660156 217.628906 182.023438 L 217.292969 182.023438 L 217.292969 194.203125 C 217.292969 194.695312 217.691406 195.09375 218.183594 195.09375 C 218.675781 195.09375 219.074219 194.695312 219.074219 194.203125 L 219.074219 182.730469 C 219.265625 182.835938 219.457031 182.941406 219.644531 183.046875 C 224.148438 185.664062 227.328125 189.839844 228.84375 195.128906 C 229.179688 196.292969 230.136719 198.558594 232.820312 200.632812 C 235.296875 202.550781 238.617188 203.84375 242.695312 204.480469 C 238.234375 205.339844 235.109375 206.460938 232.660156 208.074219 C 231.1875 209.042969 229.9375 210.183594 228.722656 211.699219 L 228.722656 206.730469 C 228.722656 206.238281 228.324219 205.835938 227.832031 205.835938 C 227.339844 205.835938 226.941406 206.238281 226.941406 206.730469 L 226.941406 214.234375 C 226.738281 214.554688 226.535156 214.886719 226.332031 215.234375 C 223.417969 220.171875 219.460938 223.511719 214.566406 225.164062 C 212.410156 225.894531 210.292969 226.222656 208.34375 226.308594 L 208.34375 220.988281 C 208.34375 220.496094 207.945312 220.097656 207.453125 220.097656 C 206.960938 220.097656 206.5625 220.496094 206.5625 220.988281 L 206.5625 226.328125 C 204.945312 226.289062 203.492188 226.101562 202.292969 225.875 C 197.453125 224.96875 193.589844 222.394531 190.8125 218.226562 C 188.589844 214.894531 187.113281 210.503906 186.65625 205.863281 C 186.644531 205.773438 186.636719 205.679688 186.628906 205.585938 C 186.601562 205.300781 186.578125 205 186.5625 204.695312 C 186.5625 204.6875 186.5625 204.679688 186.558594 204.671875 C 186.558594 204.667969 186.558594 204.667969 186.5625 204.667969 C 186.5625 204.664062 186.558594 204.660156 186.558594 204.65625 C 186.554688 204.578125 186.550781 204.496094 186.546875 204.414062 L 186.546875 204.410156 C 186.375 201.179688 186.664062 198.09375 187.40625 195.226562 C 188.117188 192.476562 189.226562 189.992188 190.707031 187.847656 C 191.628906 186.511719 192.675781 185.332031 193.835938 184.316406 L 193.835938 193.871094 C 193.835938 194.363281 194.234375 194.761719 194.726562 194.761719 C 195.21875 194.761719 195.621094 194.363281 195.621094 193.871094 L 195.621094 182.949219 C 195.738281 182.871094 195.855469 182.796875 195.972656 182.71875 C 198.039062 181.410156 200.324219 180.582031 202.765625 180.261719 C 206.527344 179.773438 210.078125 179.894531 213.296875 180.609375 Z M 213.296875 180.609375 " fill-opacity="1" fill-rule="nonzero"/></g><g clip-path="url(#05d963e872)"><g clip-path="url(#077f212735)"><g clip-path="url(#40724ec960)"><path fill="#923a5f" d="M 206.65625 160.90625 L 234.65625 160.691406 C 237.328125 160.671875 239.027344 162.859375 239.5 168.804688 L 241.347656 193.46875 C 243.25 195.867188 249.191406 197.527344 249.886719 195.871094 C 249.886719 195.871094 251.371094 176.332031 252.210938 166.167969 C 252.382812 163.765625 249.601562 159.5625 247.144531 159.023438 L 214.480469 152.167969 Z M 236.425781 183.390625 L 201.238281 184.398438 L 201.09375 181.765625 L 235.390625 180.074219 C 237.484375 179.957031 237.066406 163.589844 234.8125 163.621094 L 190.914062 163.917969 C 188.601562 163.941406 179.277344 167.214844 179.222656 168.921875 L 179.085938 178.082031 C 179.058594 180.328125 181.4375 181.328125 181.496094 184.476562 C 181.554688 187.269531 174.554688 189.753906 174.660156 192.261719 L 175.160156 201.53125 C 175.3125 204.101562 180.820312 205.160156 181.109375 207.992188 C 181.445312 210.894531 178.839844 212.285156 179.082031 214.34375 L 179.914062 221.652344 C 180.238281 224.613281 186.734375 225.777344 187.425781 228.679688 C 188.042969 231.332031 185.894531 233.15625 186.792969 235.207031 L 189.566406 241.542969 C 190.144531 243.003906 199.535156 243.890625 201.4375 243.503906 L 232.960938 237.90625 C 234.671875 237.605469 233.867188 225.261719 232.246094 225.402344 L 203.339844 228.128906 L 203.195312 225.496094 L 237.535156 222.152344 C 239.398438 221.996094 238.769531 206.1875 236.917969 206.289062 C 225.382812 206.875 202.378906 208 202.378906 208 L 202.234375 205.367188 L 237.378906 203.226562 C 239.300781 203.078125 238.632812 183.292969 236.425781 183.394531 Z M 236.425781 183.390625 " fill-opacity="1" fill-rule="nonzero"/></g></g></g><g clip-path="url(#2e145bdc23)"><g clip-path="url(#e35fcf1fe8)"><g clip-path="url(#7b9d8d0bfc)"><path fill="#000000" d="M 216.753906 137.476562 L 213.03125 130.082031 L 209.925781 123.917969 C 209.6875 123.441406 208.992188 123.476562 208.792969 123.976562 L 206.222656 130.429688 L 203.140625 138.175781 L 209.949219 137.828125 Z M 216.753906 137.476562 " fill-opacity="1" fill-rule="nonzero"/></g></g></g><g clip-path="url(#5c47d499ac)"><g clip-path="url(#c13a88ab15)"><g clip-path="url(#b61d221f98)"><path fill="#000000" d="M 216.875 138.910156 L 203.144531 139.613281 L 205.070312 184.992188 L 218.800781 184.289062 Z M 216.875 138.910156 " fill-opacity="1" fill-rule="nonzero"/></g></g></g><g clip-path="url(#d7003de588)"><g clip-path="url(#c23048025b)"><g clip-path="url(#b94fd70eb7)"><path fill="#000000" d="M 212.59375 200.1875 C 216.386719 199.992188 219.328125 196.757812 219.167969 192.964844 L 218.859375 185.660156 L 205.125 186.363281 L 205.4375 193.667969 C 205.597656 197.460938 208.800781 200.378906 212.59375 200.1875 Z M 212.59375 200.1875 " fill-opacity="1" fill-rule="nonzero"/></g></g></g><g clip-path="url(#10f8c86cfb)"><g clip-path="url(#62b405cfbb)"><g clip-path="url(#2d617a1f64)"><path fill="#923a5f" d="M 206.253906 160.683594 L 234.257812 160.867188 C 236.925781 160.882812 238.597656 163.09375 238.984375 169.046875 L 240.484375 193.734375 C 242.351562 196.160156 248.265625 197.902344 248.988281 196.253906 C 248.988281 196.253906 250.75 176.742188 251.734375 166.589844 C 251.9375 164.191406 249.21875 159.945312 246.769531 159.375 L 214.203125 152.054688 Z M 235.703125 183.585938 L 200.503906 184.09375 L 200.398438 181.460938 L 234.714844 180.253906 C 236.8125 180.167969 236.625 163.796875 234.367188 163.796875 L 190.472656 163.472656 C 188.160156 163.460938 178.789062 166.601562 178.710938 168.308594 L 178.445312 177.46875 C 178.386719 179.714844 180.75 180.746094 180.761719 183.894531 C 180.78125 186.691406 173.746094 189.074219 173.820312 191.582031 L 174.1875 200.855469 C 174.304688 203.433594 179.796875 204.566406 180.046875 207.402344 C 180.339844 210.308594 177.714844 211.664062 177.925781 213.722656 L 178.65625 221.046875 C 178.9375 224.007812 185.417969 225.265625 186.070312 228.175781 C 186.648438 230.835938 184.472656 232.632812 185.339844 234.695312 L 188.023438 241.070312 C 188.585938 242.539062 197.960938 243.558594 199.867188 243.199219 L 231.46875 238.046875 C 233.183594 237.769531 232.554688 225.417969 230.929688 225.535156 L 201.988281 227.851562 L 201.882812 225.21875 L 236.265625 222.359375 C 238.132812 222.230469 237.726562 206.414062 235.871094 206.488281 C 224.328125 206.910156 201.3125 207.710938 201.3125 207.710938 L 201.203125 205.078125 L 236.375 203.433594 C 238.296875 203.3125 237.914062 183.523438 235.703125 183.589844 Z M 235.703125 183.585938 " fill-opacity="1" fill-rule="nonzero"/></g></g></g></svg>