<svg xmlns="http://www.w3.org/2000/svg" xmlns:xlink="http://www.w3.org/1999/xlink" width="500" zoomAndPan="magnify" viewBox="0 0 375 374.999991" height="500" preserveAspectRatio="xMidYMid meet" version="1.0"><defs><clipPath id="25a55ec568"><path d="M 78.605469 204.050781 L 148.355469 204.050781 L 148.355469 289.863281 L 78.605469 289.863281 Z M 78.605469 204.050781 " clip-rule="nonzero"/></clipPath><clipPath id="cebd60bd1c"><path d="M 130 159 L 265 159 L 265 318 L 130 318 Z M 130 159 " clip-rule="nonzero"/></clipPath><clipPath id="8b76a26fec"><path d="M 116.242188 309.699219 L 143.402344 149.992188 L 272.054688 171.871094 L 244.894531 331.578125 Z M 116.242188 309.699219 " clip-rule="nonzero"/></clipPath><clipPath id="9f6b26f1b8"><path d="M 116.242188 309.699219 L 143.402344 149.992188 L 272.054688 171.871094 L 244.894531 331.578125 Z M 116.242188 309.699219 " clip-rule="nonzero"/></clipPath><clipPath id="cf559d537a"><path d="M 180 110 L 204 110 L 204 136 L 180 136 Z M 180 110 " clip-rule="nonzero"/></clipPath><clipPath id="6f1b205ece"><path d="M 263.613281 175.980469 L 196.960938 249.183594 L 124.3125 183.042969 L 190.960938 109.835938 Z M 263.613281 175.980469 " clip-rule="nonzero"/></clipPath><clipPath id="914597054e"><path d="M 263.613281 175.980469 L 196.960938 249.183594 L 124.3125 183.042969 L 190.960938 109.835938 Z M 263.613281 175.980469 " clip-rule="nonzero"/></clipPath><clipPath id="c52b256889"><path d="M 180 136 L 208 136 L 208 217 L 180 217 Z M 180 136 " clip-rule="nonzero"/></clipPath><clipPath id="26e91bd925"><path d="M 263.613281 175.980469 L 196.960938 249.183594 L 124.3125 183.042969 L 190.960938 109.835938 Z M 263.613281 175.980469 " clip-rule="nonzero"/></clipPath><clipPath id="69031b9730"><path d="M 263.613281 175.980469 L 196.960938 249.183594 L 124.3125 183.042969 L 190.960938 109.835938 Z M 263.613281 175.980469 " clip-rule="nonzero"/></clipPath><clipPath id="267bc8f039"><path d="M 183 217 L 208 217 L 208 243 L 183 243 Z M 183 217 " clip-rule="nonzero"/></clipPath><clipPath id="ceb35f2721"><path d="M 263.613281 175.980469 L 196.960938 249.183594 L 124.3125 183.042969 L 190.960938 109.835938 Z M 263.613281 175.980469 " clip-rule="nonzero"/></clipPath><clipPath id="a10ec615a8"><path d="M 263.613281 175.980469 L 196.960938 249.183594 L 124.3125 183.042969 L 190.960938 109.835938 Z M 263.613281 175.980469 " clip-rule="nonzero"/></clipPath><clipPath id="8b28d54f72"><path d="M 129 167 L 237 167 L 237 318 L 129 318 Z M 129 167 " clip-rule="nonzero"/></clipPath><clipPath id="180f13e05f"><path d="M 113.648438 308.308594 L 139.660156 167.441406 L 236.277344 185.28125 L 210.261719 326.148438 Z M 113.648438 308.308594 " clip-rule="nonzero"/></clipPath><clipPath id="c39f4df0fe"><path d="M 113.648438 308.308594 L 143.0625 149 L 271.394531 172.699219 L 241.976562 332.003906 Z M 113.648438 308.308594 " clip-rule="nonzero"/></clipPath></defs><g clip-path="url(#25a55ec568)"><path fill="#7ed957" d="M 179.058594 205.3125 C 174.398438 205.925781 170.03125 207.503906 166.082031 210.007812 C 162.210938 212.457031 158.851562 215.726562 156.101562 219.714844 C 153.34375 223.71875 151.273438 228.335938 149.953125 233.4375 C 148.714844 238.21875 148.167969 243.328125 148.3125 248.652344 C 140.6875 246.890625 136.9375 245.386719 135.472656 242.128906 C 135.363281 241.886719 135.261719 241.621094 135.152344 241.339844 C 134.824219 240.488281 134.453125 239.523438 133.6875 238.714844 C 131.757812 236.660156 129.117188 237.042969 126.789062 237.382812 C 125.230469 237.609375 123.761719 237.824219 122.683594 237.347656 C 121.125 236.660156 120.433594 234.523438 119.761719 232.460938 C 119.683594 232.21875 119.609375 231.984375 119.53125 231.75 C 118.507812 228.671875 116.046875 225.277344 112.488281 225.835938 C 111.734375 225.957031 111.09375 226.246094 110.523438 226.5 C 110.167969 226.660156 109.835938 226.808594 109.53125 226.890625 C 107.058594 227.539062 104.875 224.199219 104.113281 221.617188 C 103.972656 221.148438 103.84375 220.671875 103.707031 220.167969 C 102.820312 216.941406 101.816406 213.28125 98.558594 211.488281 C 96.683594 210.457031 94.445312 210.378906 92.253906 211.273438 C 89.644531 212.339844 87.539062 214.617188 86.757812 217.222656 C 85.597656 221.082031 86.621094 225.660156 89.636719 230.117188 C 95.351562 238.5625 104.914062 243.261719 112.601562 246.410156 C 113.910156 246.945312 115.214844 247.457031 116.511719 247.941406 C 114.425781 248.238281 112.296875 248.589844 110.140625 249.007812 C 101.980469 250.574219 91.679688 253.292969 84.410156 260.441406 C 80.574219 264.214844 78.664062 268.503906 79.042969 272.515625 C 79.292969 275.222656 80.910156 277.871094 83.253906 279.429688 C 85.226562 280.738281 87.4375 281.109375 89.480469 280.46875 C 93.027344 279.351562 94.734375 275.964844 96.238281 272.972656 C 96.476562 272.503906 96.695312 272.0625 96.925781 271.632812 C 98.179688 269.25 100.984375 266.40625 103.277344 267.535156 C 103.558594 267.671875 103.855469 267.886719 104.175781 268.113281 C 104.679688 268.472656 105.25 268.882812 105.96875 269.148438 C 109.347656 270.402344 112.429688 267.558594 114.042969 264.746094 C 114.164062 264.535156 114.285156 264.316406 114.410156 264.097656 C 115.472656 262.207031 116.574219 260.25 118.234375 259.882812 C 119.386719 259.628906 120.789062 260.128906 122.269531 260.65625 C 124.484375 261.449219 126.996094 262.347656 129.292969 260.71875 C 130.203125 260.074219 130.757812 259.203125 131.246094 258.433594 C 131.410156 258.179688 131.558594 257.9375 131.714844 257.722656 C 133.382812 255.394531 136.183594 254.390625 142.046875 254.011719 C 143.910156 253.890625 146.015625 253.832031 148.675781 253.796875 C 149.097656 257.464844 149.859375 261.039062 150.949219 264.4375 C 152.277344 268.578125 154.066406 272.347656 156.257812 275.636719 C 158.730469 279.34375 161.714844 282.433594 165.128906 284.816406 C 168.921875 287.464844 173.277344 289.261719 178.078125 290.164062 C 183.59375 291.195312 192.015625 291.804688 200.832031 288.824219 C 210 285.726562 217.394531 279.503906 222.8125 270.324219 C 226.105469 264.746094 228.992188 261.453125 232.78125 258.960938 C 236.96875 256.203125 242.507812 254.332031 250.746094 252.882812 C 252.109375 252.640625 253.046875 251.523438 253.046875 250.144531 C 253.046875 250.121094 253.046875 250.09375 253.046875 250.066406 C 253.011719 248.660156 252.011719 247.554688 250.613281 247.378906 C 232.246094 245.082031 228.246094 235.929688 227.457031 233.179688 C 224.617188 223.269531 218.632812 215.425781 210.15625 210.503906 C 201.628906 205.554688 190.875 203.757812 179.058594 205.3125 Z M 113.769531 243.5625 C 106.480469 240.578125 97.4375 236.15625 92.1875 228.390625 C 88.832031 223.433594 89.191406 219.820312 89.707031 218.105469 C 90.222656 216.398438 91.679688 214.835938 93.421875 214.121094 C 94.179688 213.8125 95.664062 213.40625 97.074219 214.183594 C 99.191406 215.347656 99.941406 218.085938 100.738281 220.984375 C 100.875 221.480469 101.015625 221.992188 101.160156 222.488281 C 101.777344 224.582031 102.914062 226.5625 104.277344 227.929688 C 106.074219 229.730469 108.21875 230.417969 110.316406 229.867188 C 110.867188 229.722656 111.359375 229.5 111.792969 229.304688 C 112.21875 229.113281 112.621094 228.929688 112.96875 228.878906 C 114.511719 228.632812 115.941406 230.699219 116.613281 232.722656 C 116.6875 232.949219 116.765625 233.175781 116.839844 233.40625 C 117.636719 235.863281 118.625 238.917969 121.441406 240.160156 C 123.328125 240.996094 125.402344 240.695312 127.234375 240.429688 C 129.332031 240.125 130.65625 239.980469 131.449219 240.820312 C 131.800781 241.195312 132.03125 241.800781 132.28125 242.441406 C 132.398438 242.75 132.519531 243.066406 132.667969 243.390625 C 133.308594 244.820312 134.226562 245.980469 135.40625 246.949219 C 131.632812 246.765625 127.714844 246.832031 123.671875 247.148438 C 120.457031 246.144531 117.125 244.9375 113.769531 243.5625 Z M 129.210938 255.929688 C 129.003906 256.21875 128.820312 256.507812 128.644531 256.785156 C 128.277344 257.367188 127.929688 257.914062 127.511719 258.207031 C 126.570312 258.878906 125.296875 258.476562 123.300781 257.761719 C 121.5625 257.136719 119.585938 256.433594 117.570312 256.878906 C 114.566406 257.542969 112.992188 260.339844 111.726562 262.589844 C 111.605469 262.800781 111.488281 263.011719 111.371094 263.21875 C 110.3125 265.066406 108.503906 266.8125 107.039062 266.269531 C 106.710938 266.144531 106.351562 265.886719 105.96875 265.613281 C 105.582031 265.335938 105.144531 265.023438 104.636719 264.773438 C 102.691406 263.816406 100.449219 264.070312 98.332031 265.480469 C 96.726562 266.550781 95.222656 268.269531 94.203125 270.199219 C 93.960938 270.65625 93.722656 271.128906 93.492188 271.589844 C 92.140625 274.273438 90.863281 276.808594 88.558594 277.53125 C 87.019531 278.015625 85.644531 277.324219 84.960938 276.871094 C 83.394531 275.828125 82.277344 274.007812 82.109375 272.230469 C 82.089844 272.023438 82.078125 271.792969 82.078125 271.539062 C 82.078125 269.605469 82.792969 266.351562 86.566406 262.636719 C 93.25 256.066406 102.988281 253.515625 110.722656 252.03125 C 115.179688 251.171875 119.519531 250.570312 123.621094 250.238281 C 130.664062 249.671875 137.292969 249.878906 143.410156 250.855469 C 142.871094 250.878906 142.351562 250.910156 141.847656 250.941406 C 136.144531 251.3125 131.8125 252.300781 129.210938 255.929688 Z M 197.644531 208.960938 L 197.644531 219.328125 C 197.644531 220.175781 198.332031 220.867188 199.183594 220.867188 C 200.035156 220.867188 200.722656 220.175781 200.722656 219.328125 L 200.722656 209.765625 C 202.246094 210.230469 203.714844 210.773438 205.132812 211.402344 L 204.550781 211.402344 L 204.550781 232.4375 C 204.550781 233.285156 205.238281 233.976562 206.089844 233.976562 C 206.9375 233.976562 207.628906 233.285156 207.628906 232.4375 L 207.628906 212.625 C 207.960938 212.800781 208.289062 212.984375 208.613281 213.171875 C 216.390625 217.6875 221.882812 224.902344 224.5 234.035156 C 225.078125 236.046875 226.734375 239.957031 231.367188 243.542969 C 235.644531 246.855469 241.375 249.085938 248.421875 250.183594 C 240.71875 251.671875 235.320312 253.609375 231.089844 256.394531 C 228.546875 258.066406 226.386719 260.035156 224.292969 262.65625 L 224.292969 254.070312 C 224.292969 253.222656 223.601562 252.53125 222.753906 252.53125 C 221.902344 252.53125 221.210938 253.222656 221.210938 254.070312 L 221.210938 267.035156 C 220.863281 267.589844 220.511719 268.164062 220.160156 268.765625 C 215.128906 277.285156 208.292969 283.058594 199.84375 285.910156 C 196.117188 287.171875 192.460938 287.738281 189.097656 287.890625 L 189.097656 278.695312 C 189.097656 277.847656 188.40625 277.15625 187.554688 277.15625 C 186.707031 277.15625 186.015625 277.847656 186.015625 278.695312 L 186.015625 287.921875 C 183.222656 287.851562 180.714844 287.527344 178.640625 287.140625 C 170.28125 285.574219 163.613281 281.128906 158.816406 273.933594 C 154.976562 268.171875 152.425781 260.589844 151.632812 252.578125 C 151.617188 252.421875 151.601562 252.261719 151.589844 252.101562 C 151.542969 251.605469 151.503906 251.089844 151.472656 250.558594 C 151.472656 250.546875 151.472656 250.53125 151.46875 250.519531 C 151.46875 250.515625 151.46875 250.511719 151.472656 250.511719 C 151.472656 250.503906 151.46875 250.5 151.46875 250.496094 C 151.460938 250.355469 151.453125 250.214844 151.445312 250.074219 L 151.445312 250.0625 C 151.152344 244.488281 151.652344 239.15625 152.929688 234.207031 C 154.160156 229.457031 156.078125 225.167969 158.632812 221.460938 C 160.226562 219.15625 162.035156 217.117188 164.039062 215.363281 L 164.039062 231.863281 C 164.039062 232.710938 164.726562 233.402344 165.578125 233.402344 C 166.425781 233.402344 167.117188 232.710938 167.117188 231.863281 L 167.117188 213.003906 C 167.316406 212.867188 167.519531 212.734375 167.726562 212.605469 C 171.296875 210.34375 175.242188 208.914062 179.460938 208.363281 C 185.953125 207.511719 192.085938 207.722656 197.644531 208.960938 Z M 197.644531 208.960938 " fill-opacity="1" fill-rule="nonzero"/></g><g clip-path="url(#cebd60bd1c)"><g clip-path="url(#8b76a26fec)"><g clip-path="url(#9f6b26f1b8)"><path fill="#923a5f" d="M 186.175781 174.957031 L 234.535156 174.585938 C 239.144531 174.550781 242.082031 178.328125 242.894531 188.59375 L 246.089844 231.191406 C 249.375 235.332031 259.628906 238.199219 260.832031 235.335938 C 260.832031 235.335938 263.398438 201.597656 264.851562 184.039062 C 265.144531 179.894531 260.34375 172.632812 256.101562 171.707031 L 199.691406 159.863281 Z M 237.589844 213.78125 L 176.824219 215.523438 L 176.570312 210.976562 L 235.800781 208.054688 C 239.414062 207.851562 238.695312 179.59375 234.800781 179.644531 L 158.996094 180.160156 C 155 180.195312 138.894531 185.847656 138.804688 188.796875 L 138.566406 204.617188 C 138.523438 208.5 142.628906 210.21875 142.726562 215.660156 C 142.828125 220.484375 130.742188 224.773438 130.925781 229.101562 L 131.785156 245.109375 C 132.050781 249.554688 141.566406 251.375 142.0625 256.269531 C 142.644531 261.277344 138.140625 263.683594 138.5625 267.234375 L 139.996094 279.859375 C 140.558594 284.96875 151.777344 286.980469 152.972656 291.992188 C 154.035156 296.570312 150.328125 299.726562 151.875 303.265625 L 156.664062 314.207031 C 157.667969 316.734375 173.878906 318.261719 177.164062 317.59375 L 231.605469 307.925781 C 234.558594 307.40625 233.171875 286.09375 230.367188 286.332031 L 180.453125 291.042969 L 180.203125 286.496094 L 239.507812 280.722656 C 242.722656 280.453125 241.636719 253.152344 238.4375 253.324219 C 218.515625 254.335938 178.792969 256.277344 178.792969 256.277344 L 178.542969 251.734375 L 239.234375 248.039062 C 242.550781 247.78125 241.402344 213.617188 237.585938 213.789062 Z M 237.589844 213.78125 " fill-opacity="1" fill-rule="nonzero"/></g></g></g><g clip-path="url(#cf559d537a)"><g clip-path="url(#6f1b205ece)"><g clip-path="url(#914597054e)"><path fill="#000000" d="M 203.621094 134.488281 L 197.1875 121.714844 L 191.832031 111.070312 C 191.414062 110.246094 190.214844 110.304688 189.871094 111.171875 L 185.433594 122.316406 L 180.113281 135.691406 L 191.867188 135.089844 L 203.625 134.488281 Z M 203.621094 134.488281 " fill-opacity="1" fill-rule="nonzero"/></g></g></g><g clip-path="url(#c52b256889)"><g clip-path="url(#26e91bd925)"><g clip-path="url(#69031b9730)"><path fill="#000000" d="M 203.832031 136.957031 L 180.113281 138.175781 L 183.441406 216.546875 L 207.15625 215.332031 Z M 203.832031 136.957031 " fill-opacity="1" fill-rule="nonzero"/></g></g></g><g clip-path="url(#267bc8f039)"><g clip-path="url(#ceb35f2721)"><g clip-path="url(#a10ec615a8)"><path fill="#000000" d="M 196.4375 242.789062 C 202.984375 242.453125 208.066406 236.871094 207.792969 230.316406 L 207.253906 217.703125 L 183.539062 218.917969 L 184.074219 231.535156 C 184.355469 238.085938 189.886719 243.125 196.4375 242.789062 Z M 196.4375 242.789062 " fill-opacity="1" fill-rule="nonzero"/></g></g></g><g clip-path="url(#8b28d54f72)"><g clip-path="url(#180f13e05f)"><g clip-path="url(#c39f4df0fe)"><path fill="#923a5f" d="M 185.480469 174.570312 L 233.839844 174.886719 C 238.449219 174.914062 241.335938 178.730469 242 189.007812 L 244.589844 231.644531 C 247.820312 235.832031 258.03125 238.847656 259.277344 236 C 259.277344 236 262.320312 202.300781 264.019531 184.765625 C 264.371094 180.625 259.675781 173.296875 255.445312 172.308594 L 199.210938 159.667969 Z M 236.339844 214.121094 L 175.554688 215 L 175.367188 210.453125 L 234.632812 208.367188 C 238.25 208.214844 237.929688 179.949219 234.03125 179.945312 L 158.230469 179.386719 C 154.234375 179.367188 138.050781 184.789062 137.917969 187.738281 L 137.457031 203.554688 C 137.355469 207.433594 141.4375 209.210938 141.460938 214.652344 C 141.492188 219.480469 129.347656 223.597656 129.46875 227.929688 L 130.101562 243.945312 C 130.304688 248.390625 139.792969 250.347656 140.222656 255.25 C 140.730469 260.265625 136.195312 262.609375 136.5625 266.164062 L 137.820312 278.808594 C 138.3125 283.925781 149.5 286.09375 150.625 291.125 C 151.621094 295.71875 147.871094 298.820312 149.367188 302.378906 L 154 313.390625 C 154.96875 315.929688 171.15625 317.6875 174.453125 317.0625 L 229.023438 308.171875 C 231.984375 307.691406 230.898438 286.359375 228.089844 286.558594 L 178.117188 290.5625 L 177.929688 286.015625 L 237.308594 281.082031 C 240.53125 280.855469 239.828125 253.542969 236.625 253.671875 C 216.695312 254.398438 176.949219 255.78125 176.949219 255.78125 L 176.761719 251.230469 L 237.496094 248.394531 C 240.820312 248.1875 240.15625 214.007812 236.339844 214.125 Z M 236.339844 214.121094 " fill-opacity="1" fill-rule="nonzero"/></g></g></g></svg>